<!-- Generator: Adobe Illustrator 21.0.0, SVG Export Plug-In  -->
<svg version="1.1"
	 xmlns="http://www.w3.org/2000/svg" xmlns:xlink="http://www.w3.org/1999/xlink" xmlns:a="http://ns.adobe.com/AdobeSVGViewerExtensions/3.0/"
	 x="0px" y="0px" width="351.233px" height="299px" viewBox="0 0 351.233 299" style="enable-background:new 0 0 351.233 299;"
	 xml:space="preserve">
<style type="text/css">
	.st0{fill:#E0D9D9;}
	.st1{fill:#808080;}
	.st2{fill:#FFFFFF;stroke:#E0D9D9;stroke-miterlimit:1;}
	.st3{font-family:'IowanOldStyle-Roman';}
	.st4{font-size:58.0726px;}
	.st5{letter-spacing:-3;}
	.st6{font-size:24.6534px;}
</style>
<defs>
</defs>
<g>
	<path class="st0" d="M36.314,114.81c1.323,0.076,2.637,0.133,3.941,0.17c1.304,0.038,2.58,0.057,3.828,0.057
		c1.059,0,2.24-0.019,3.544-0.057c1.305-0.037,2.684-0.094,4.14-0.17v1.929h-0.482c-1.229,0-2.151,0.142-2.765,0.426
		c-0.615,0.283-1.045,0.757-1.291,1.418c-0.151,0.436-0.26,1.141-0.326,2.114c-0.066,0.975-0.1,2.559-0.1,4.754v5.646v14.133
		c0,2.232,0.052,3.803,0.156,4.711c0.104,0.908,0.269,1.579,0.496,2.015c0.246,0.473,0.685,0.813,1.318,1.021
		s1.526,0.312,2.68,0.312h0.596v1.985c-1.626-0.075-3.129-0.132-4.509-0.17s-2.533-0.057-3.459-0.057
		c-1.096,0-2.335,0.019-3.714,0.057c-1.38,0.038-2.826,0.095-4.338,0.17v-1.985h0.567c1.172,0,2.07-0.104,2.694-0.312
		c0.624-0.208,1.059-0.549,1.304-1.021c0.265-0.511,0.449-1.349,0.553-2.512c0.104-1.164,0.156-3.269,0.156-6.314v-4.483V127.55
		c0-2.97-0.038-5.084-0.113-6.342c-0.076-1.259-0.199-2.134-0.369-2.626c-0.227-0.661-0.638-1.135-1.233-1.418
		c-0.596-0.284-1.517-0.426-2.765-0.426h-0.51V114.81z"/>
	<path class="st0" d="M55.625,114.81c0.889,0.076,1.753,0.133,2.595,0.17c0.841,0.038,1.668,0.057,2.481,0.057
		c0.605,0,1.314-0.019,2.127-0.057c0.812-0.037,1.691-0.094,2.637-0.17c0.245,0.624,0.585,1.267,1.021,1.929
		c0.435,0.661,0.983,1.389,1.645,2.183l23.394,27.676c-0.057-2.873-0.113-6.683-0.17-11.428c-0.151-9.962-0.322-15.321-0.51-16.077
		c-0.227-0.869-0.629-1.475-1.205-1.815c-0.577-0.34-1.517-0.51-2.822-0.51h-0.879v-1.957c0.227,0,0.567,0.01,1.021,0.028
		c2.684,0.133,4.574,0.198,5.671,0.198c1.115,0,3.062-0.065,5.841-0.198c0.397-0.019,0.699-0.028,0.907-0.028l-0.028,1.957
		c-0.113-0.019-0.236-0.033-0.369-0.043c-0.132-0.009-0.312-0.014-0.539-0.014c-2.533,0-3.819,3.525-3.856,10.576
		c-0.019,1.777-0.028,3.167-0.028,4.169l-0.113,7.542c-0.038,1.116-0.062,2.265-0.071,3.445c-0.01,1.182-0.014,2.803-0.014,4.863
		c0,2.287,0.028,4.069,0.085,5.345c0.057,1.276,0.151,2.302,0.284,3.077H91.58c-0.321-0.756-1.465-2.269-3.431-4.537l-0.284-0.341
		l-24.329-28.61v0.652c0.113,17.693,0.302,27.051,0.567,28.071c0.227,0.87,0.628,1.475,1.205,1.815
		c0.577,0.34,1.498,0.51,2.765,0.51h0.851v1.985c-0.283-0.019-0.699-0.038-1.248-0.057c-2.646-0.113-4.452-0.17-5.416-0.17
		c-0.926,0-1.952,0.019-3.076,0.057c-1.125,0.038-2.311,0.095-3.559,0.17v-1.957c0.114,0,0.241,0.005,0.383,0.015
		c0.142,0.01,0.326,0.015,0.553,0.015c2.533,0,3.818-3.507,3.856-10.521c0.019-1.776,0.028-3.166,0.028-4.168l0.142-7.543
		c0.019-1.626,0.033-3.209,0.042-4.75c0.009-1.54,0.014-3.303,0.014-5.288c0-1.625-0.312-2.75-0.936-3.374
		c-0.624-0.624-1.73-0.936-3.318-0.936h-0.766V114.81z"/>
	<path class="st0" d="M102.979,155.273v-1.957c0.113,0,0.236,0.005,0.368,0.015s0.321,0.015,0.567,0.015
		c2.514,0,3.79-3.507,3.828-10.521c0.019-1.776,0.038-3.166,0.057-4.168l0.113-7.543c0.019-1.626,0.033-3.209,0.042-4.75
		c0.009-1.54,0.014-3.303,0.014-5.288c0-1.625-0.302-2.75-0.907-3.374c-0.605-0.624-1.683-0.936-3.232-0.936h-0.227v-1.957
		c1.248,0.057,2.405,0.109,3.474,0.156c1.068,0.047,1.961,0.07,2.68,0.07c2.079,0,4.371-0.08,6.876-0.24
		c2.505-0.161,3.975-0.241,4.41-0.241c7.032,0,12.571,1.786,16.617,5.359c4.045,3.572,6.068,8.431,6.068,14.574
		c0,6.314-2.027,11.395-6.083,15.241c-4.055,3.848-9.476,5.771-16.262,5.771c-1.002,0-2.827-0.075-5.473-0.227
		c-2.647-0.151-4.792-0.227-6.437-0.227c-0.775,0-1.72,0.019-2.835,0.057C105.521,155.142,104.302,155.198,102.979,155.273z
		 M113.017,151.843c1.38,0.302,2.736,0.524,4.069,0.666c1.333,0.142,2.67,0.213,4.012,0.213c5.331,0,9.418-1.456,12.264-4.367
		s4.267-7.069,4.267-12.477c0-5.766-1.531-10.283-4.593-13.554c-3.062-3.271-7.315-4.905-12.76-4.905
		c-1.116,0-2.25,0.042-3.403,0.127c-1.153,0.085-2.335,0.213-3.544,0.383c-0.113,6.881-0.194,12.307-0.241,16.276
		s-0.071,7.278-0.071,9.925V151.843z"/>
	<path class="st0" d="M163.121,114.81v1.929c-0.113,0-0.274-0.01-0.482-0.028s-0.359-0.028-0.453-0.028
		c-1.494,0-2.506,0.492-3.034,1.476c-0.53,0.983-0.794,3.32-0.794,7.009v4.484v5.874c0,3.065,0.094,5.326,0.283,6.782
		c0.188,1.457,0.501,2.658,0.936,3.604c0.926,2.043,2.292,3.6,4.098,4.668c1.805,1.069,3.984,1.604,6.536,1.604
		c1.909,0,3.582-0.274,5.019-0.822c1.437-0.549,2.666-1.392,3.687-2.526s1.739-2.525,2.155-4.171c0.415-1.646,0.623-4.39,0.623-8.23
		c0-4.616-0.052-8.499-0.155-11.649c-0.104-3.149-0.241-5.056-0.411-5.719c-0.266-0.87-0.677-1.475-1.233-1.815
		c-0.559-0.341-1.461-0.511-2.708-0.511h-0.426v-1.929c0.227,0,0.558,0.01,0.992,0.028c2.609,0.133,4.471,0.198,5.587,0.198
		c1.096,0,2.948-0.065,5.558-0.198c0.453-0.019,0.784-0.028,0.992-0.028v1.929h-0.34c-1.116,0-1.952,0.142-2.51,0.426
		c-0.558,0.283-0.96,0.757-1.205,1.418c-0.208,0.549-0.359,1.991-0.454,4.328c-0.095,2.336-0.142,6.114-0.142,11.336v2.838
		c0,2.988-0.113,5.273-0.34,6.853c-0.228,1.58-0.596,2.975-1.106,4.186c-1.059,2.516-2.883,4.493-5.473,5.931
		s-5.643,2.156-9.159,2.156c-2.438,0-4.684-0.359-6.734-1.078s-3.795-1.759-5.231-3.121c-1.569-1.438-2.685-3.136-3.346-5.094
		c-0.662-1.958-0.992-4.696-0.992-8.215c0-1.362,0.019-3.59,0.057-6.683c0.037-3.093,0.057-5.51,0.057-7.25v-0.88
		c0-3.254-0.27-5.259-0.809-6.016s-1.593-1.135-3.161-1.135h-0.511v-1.929c1.342,0.076,2.618,0.133,3.828,0.17
		c1.209,0.038,2.315,0.057,3.317,0.057c1.21,0,2.438-0.019,3.687-0.057C160.568,114.942,161.835,114.886,163.121,114.81z"/>
	<path class="st0" d="M218.528,116.029c0,1.399,0.08,2.778,0.241,4.14c0.16,1.361,0.411,2.703,0.751,4.026l-2.211,0.426
		c-0.322-2.344-1.225-4.083-2.708-5.218c-1.484-1.134-3.578-1.701-6.281-1.701c-2.495,0-4.522,0.605-6.082,1.814
		c-1.56,1.21-2.34,2.77-2.34,4.679c0,3.139,3.327,5.823,9.981,8.054c0.889,0.283,1.569,0.51,2.042,0.68
		c3.043,1.06,5.283,2.415,6.72,4.069s2.155,3.7,2.155,6.139c0,3.763-1.428,6.811-4.281,9.146c-2.855,2.335-6.636,3.502-11.343,3.502
		c-1.796,0-3.55-0.147-5.26-0.439c-1.711-0.293-3.445-0.752-5.203-1.376c0.019-0.188,0.032-0.411,0.042-0.666
		s0.015-0.628,0.015-1.12c0-1.342-0.076-2.665-0.228-3.97s-0.378-2.608-0.68-3.913l2.552-0.596c0.321,3.101,1.294,5.369,2.921,6.806
		c1.625,1.437,4.035,2.155,7.23,2.155c2.797,0,5.075-0.704,6.834-2.113c1.758-1.407,2.637-3.218,2.637-5.43
		c0-3.138-2.741-5.576-8.224-7.315c-0.775-0.246-1.38-0.444-1.814-0.596c-3.8-1.229-6.521-2.731-8.166-4.509
		c-1.645-1.776-2.468-4.045-2.468-6.806c0-3.251,1.286-5.964,3.856-8.138c2.571-2.174,5.794-3.261,9.67-3.261
		c1.418,0,2.854,0.113,4.31,0.34C214.653,115.065,216.43,115.462,218.528,116.029z"/>
	<path class="st0" d="M232.763,153.288h0.992c1.343,0,2.297-0.165,2.864-0.496c0.567-0.33,0.964-0.939,1.191-1.829
		c0.17-0.585,0.287-2.712,0.354-6.38c0.065-3.667,0.099-9.376,0.099-17.127v-9.045h-5.728c-2.779,0-4.655,0.373-5.629,1.12
		s-1.697,2.32-2.169,4.721l-1.844-0.396c0.359-1.645,0.634-3.261,0.823-4.849c0.188-1.588,0.283-3.147,0.283-4.679
		c0.567,0.359,1.716,0.614,3.445,0.766s4.759,0.227,9.088,0.227h6.919c5.746,0,9.446-0.071,11.102-0.213
		c1.653-0.142,2.812-0.401,3.473-0.779c0,0.188-0.01,0.486-0.028,0.893c-0.019,0.407-0.028,0.714-0.028,0.922
		c0,1.19,0.052,2.42,0.156,3.687c0.104,1.267,0.26,2.57,0.468,3.913l-1.786,0.34c-0.227-2.136-0.809-3.592-1.744-4.367
		c-0.936-0.774-2.906-1.209-5.912-1.304h-5.359c-0.019,1.077-0.038,2.6-0.057,4.565c-0.038,5.16-0.057,8.63-0.057,10.406
		c0,6.711,0.043,11.257,0.128,13.639s0.231,3.866,0.439,4.452c0.245,0.681,0.652,1.153,1.219,1.418
		c0.567,0.265,1.437,0.396,2.609,0.396h0.992v1.985c-1.569-0.075-3.048-0.132-4.438-0.17s-2.633-0.057-3.729-0.057
		c-0.965,0-2.151,0.019-3.56,0.057s-2.935,0.095-4.579,0.17V153.288z"/>
	<path class="st0" d="M262.083,153.431c0.132,0.019,0.26,0.033,0.383,0.042c0.122,0.01,0.307,0.015,0.553,0.015
		c2.514,0,3.79-3.535,3.828-10.605c0.019-1.776,0.037-3.166,0.057-4.168l0.113-7.741c0.019-1.663,0.033-3.279,0.043-4.849
		c0.009-1.569,0.014-3.271,0.014-5.104c0-1.625-0.303-2.75-0.907-3.374c-0.605-0.624-1.683-0.936-3.232-0.936h-0.227v-1.985
		c1.266,0.095,2.519,0.161,3.757,0.198c1.237,0.038,2.443,0.057,3.615,0.057c1.267,0,2.84-0.042,4.722-0.127
		c1.88-0.085,3.133-0.128,3.757-0.128c3.875,0,7.051,1.021,9.527,3.062s3.715,4.604,3.715,7.685c0,2.287-0.619,4.324-1.857,6.11
		s-3.096,3.313-5.572,4.58l5.303,8.024c0.188,0.303,0.473,0.737,0.851,1.304c3.667,5.597,6.673,8.394,9.018,8.394h0.283v1.616
		c-0.265,0.019-0.662,0.057-1.19,0.113c-1.229,0.114-2.127,0.171-2.694,0.171c-2.004,0-3.587-0.27-4.749-0.809
		c-1.163-0.539-2.312-1.583-3.445-3.133c-0.189-0.246-1.233-1.929-3.134-5.048c-1.899-3.119-3.813-6.059-5.742-8.818
		c-0.719,0.075-1.484,0.133-2.297,0.17c-0.812,0.038-1.711,0.057-2.693,0.057h-1.701v8.705c0,2.836,0.293,4.627,0.879,5.374
		s1.748,1.12,3.487,1.12c0.057,0,0.132-0.01,0.228-0.028c0.094-0.019,0.17-0.028,0.227-0.028c0.075,0,0.137,0.01,0.185,0.028
		c0.047,0.019,0.08,0.028,0.099,0.028v1.871c-1.342-0.075-2.675-0.132-3.998-0.17s-2.637-0.057-3.941-0.057
		c-0.699,0-1.683,0.019-2.949,0.057s-2.703,0.095-4.31,0.17V153.431z M272.178,135.282c0.907,0.095,1.762,0.161,2.565,0.199
		s1.518,0.057,2.142,0.057c0.528,0,1.134-0.015,1.814-0.043s1.418-0.08,2.212-0.156c1.814-1.096,3.147-2.367,3.998-3.813
		s1.276-3.171,1.276-5.175c0-2.627-0.851-4.735-2.553-6.323c-1.701-1.588-3.988-2.382-6.861-2.382c-0.775,0-1.531,0.033-2.269,0.099
		c-0.737,0.067-1.466,0.166-2.184,0.298c-0.057,2.345-0.095,4.755-0.113,7.231C272.187,127.75,272.178,131.086,272.178,135.282z"/>
	<path class="st0" d="M297.329,114.81c1.398,0.076,2.712,0.133,3.941,0.17c1.229,0.038,2.315,0.057,3.261,0.057
		c1.021,0,2.117-0.019,3.289-0.057c1.172-0.037,2.4-0.094,3.687-0.17v1.957h-0.397c-1.04,0-1.834,0.108-2.382,0.326
		c-0.548,0.217-0.822,0.534-0.822,0.949c0,0.454,0.463,1.475,1.39,3.062c0.245,0.416,0.444,0.757,0.596,1.021l6.833,12.192
		c3.101-4.972,5.426-8.809,6.976-11.513c1.55-2.703,2.325-4.271,2.325-4.707c0-0.453-0.231-0.789-0.694-1.006
		c-0.464-0.218-1.215-0.326-2.254-0.326h-0.482v-1.957c1.134,0.076,2.212,0.133,3.232,0.17c1.021,0.038,1.919,0.057,2.694,0.057
		c0.964,0,1.946-0.019,2.948-0.057c1.002-0.037,2.032-0.094,3.091-0.17v1.957c-0.038-0.019-0.085-0.033-0.142-0.043
		c-0.057-0.009-0.142-0.014-0.255-0.014h-0.341c-1.683,0-3.866,2.154-6.55,6.465c-0.832,1.343-1.493,2.4-1.985,3.176l-7.146,10.917
		l0.113,10.123c0.038,2.628,0.341,4.268,0.908,4.92c0.566,0.652,1.691,0.978,3.374,0.978h0.992v1.985
		c-1.569-0.075-3.058-0.132-4.466-0.17s-2.67-0.057-3.785-0.057c-0.946,0-2.123,0.019-3.53,0.057
		c-1.409,0.038-2.936,0.095-4.58,0.17v-1.985c0.132,0,0.331,0.01,0.596,0.028c0.265,0.02,0.454,0.029,0.567,0.029
		c1.645,0,2.76-0.378,3.346-1.135c0.586-0.756,0.897-2.325,0.936-4.707l0.113-10.066l-9.158-15.454
		c-0.171-0.245-0.388-0.604-0.652-1.077c-1.683-2.836-3.214-4.253-4.594-4.253c-0.095,0-0.213,0.01-0.354,0.028
		s-0.345,0.047-0.609,0.085L297.329,114.81z"/>
</g>
<g>
	<path class="st1" d="M35.801,181.732v-0.831c0.048,0,0.1,0.003,0.156,0.007s0.136,0.006,0.241,0.006
		c1.067,0,1.609-1.488,1.625-4.466c0.008-0.755,0.016-1.345,0.024-1.77l0.048-3.202c0.008-0.69,0.014-1.362,0.018-2.017
		s0.006-1.402,0.006-2.245c0-0.69-0.128-1.168-0.385-1.433s-0.714-0.397-1.373-0.397h-0.096v-0.83
		c0.53,0.023,1.021,0.046,1.475,0.066c0.453,0.02,0.833,0.029,1.138,0.029c0.883,0,1.855-0.033,2.919-0.102s1.688-0.103,1.872-0.103
		c2.985,0,5.336,0.758,7.054,2.275c1.717,1.517,2.576,3.579,2.576,6.188c0,2.68-0.861,4.837-2.583,6.47
		c-1.721,1.634-4.022,2.45-6.903,2.45c-0.426,0-1.2-0.032-2.323-0.097c-1.124-0.064-2.035-0.097-2.733-0.097
		c-0.329,0-0.73,0.009-1.204,0.024C36.88,181.677,36.362,181.7,35.801,181.732z M40.062,180.275
		c0.586,0.129,1.162,0.224,1.728,0.283c0.565,0.061,1.133,0.091,1.703,0.091c2.263,0,3.999-0.618,5.207-1.854
		c1.208-1.235,1.812-3.001,1.812-5.296c0-2.448-0.65-4.366-1.95-5.755c-1.3-1.388-3.105-2.082-5.417-2.082
		c-0.474,0-0.955,0.018-1.444,0.054c-0.49,0.036-0.991,0.091-1.505,0.163c-0.048,2.921-0.083,5.225-0.102,6.909
		c-0.021,1.686-0.03,3.09-0.03,4.214V180.275z"/>
	<path class="st1" d="M55.314,164.555c1.404,0.048,2.66,0.084,3.768,0.108c1.107,0.023,2.062,0.036,2.865,0.036
		c0.891,0,1.792-0.013,2.703-0.036c0.911-0.024,1.835-0.061,2.774-0.108c0.008,0.602,0.032,1.218,0.072,1.848
		s0.088,1.262,0.145,1.896l-0.807,0.072c-0.064-0.963-0.361-1.614-0.891-1.956c-0.53-0.341-1.673-0.512-3.431-0.512
		c-0.45,0-1.272,0.013-2.468,0.036c-0.241,0.009-0.417,0.013-0.53,0.013c-0.016,0.963-0.04,2.143-0.072,3.539
		s-0.052,2.303-0.06,2.721h0.373c0.474,0,1.065,0.006,1.776,0.018c0.71,0.012,1.186,0.019,1.426,0.019
		c1.164,0,1.932-0.108,2.305-0.325s0.576-0.618,0.608-1.204l0.758,0.072c-0.056,0.498-0.098,0.959-0.126,1.385
		c-0.028,0.425-0.042,0.818-0.042,1.18c0,0.208,0.02,0.658,0.06,1.348c0.016,0.249,0.028,0.438,0.036,0.566l-0.782,0.023v-0.096
		c0-0.683-0.199-1.144-0.596-1.385c-0.397-0.241-1.327-0.361-2.787-0.361H60.25h-0.867c0,0.394-0.004,0.938-0.012,1.631
		c-0.008,0.694-0.012,1.194-0.012,1.499c0,0.53,0.004,1.082,0.012,1.655c0.008,0.574,0.024,1.246,0.048,2.017
		c0.401,0.048,0.856,0.084,1.366,0.108c0.51,0.023,1.069,0.036,1.679,0.036c2.014,0,3.34-0.194,3.979-0.584s1.146-1.138,1.523-2.245
		l0.867,0.289c-0.241,0.666-0.454,1.32-0.638,1.962c-0.185,0.643-0.345,1.28-0.481,1.914c-1.26-0.048-2.432-0.084-3.515-0.108
		s-2.062-0.036-2.937-0.036c-1.196,0-3.122,0.044-5.778,0.133l-0.433,0.012v-0.782c0.056,0.008,0.11,0.014,0.162,0.018
		s0.13,0.006,0.235,0.006c1.067,0,1.609-1.5,1.625-4.502c0.008-0.754,0.016-1.344,0.024-1.77l0.048-3.286
		c0.008-0.706,0.014-1.393,0.018-2.059s0.006-1.388,0.006-2.167c0-0.689-0.128-1.167-0.385-1.433
		c-0.257-0.265-0.714-0.396-1.373-0.396h-0.096V164.555z"/>
	<path class="st1" d="M81.075,165.072c0,0.594,0.034,1.18,0.103,1.758c0.068,0.577,0.174,1.147,0.319,1.709l-0.939,0.181
		c-0.137-0.995-0.52-1.733-1.149-2.215c-0.63-0.481-1.519-0.723-2.667-0.723c-1.06,0-1.92,0.257-2.582,0.771
		s-0.993,1.176-0.993,1.986c0,1.332,1.412,2.472,4.237,3.419c0.377,0.12,0.666,0.217,0.867,0.289
		c1.292,0.449,2.243,1.024,2.853,1.727c0.61,0.703,0.915,1.571,0.915,2.606c0,1.598-0.606,2.892-1.817,3.883
		c-1.212,0.991-2.817,1.486-4.815,1.486c-0.762,0-1.506-0.062-2.233-0.187c-0.726-0.124-1.462-0.319-2.209-0.584
		c0.008-0.08,0.014-0.175,0.018-0.283s0.006-0.267,0.006-0.476c0-0.569-0.032-1.131-0.097-1.685
		c-0.064-0.554-0.161-1.107-0.289-1.661l1.083-0.253c0.136,1.316,0.549,2.279,1.24,2.889c0.69,0.61,1.713,0.915,3.069,0.915
		c1.188,0,2.155-0.299,2.901-0.896c0.746-0.598,1.12-1.366,1.12-2.306c0-1.332-1.164-2.367-3.491-3.105
		c-0.329-0.104-0.586-0.188-0.771-0.253c-1.613-0.521-2.769-1.16-3.467-1.914s-1.047-1.718-1.047-2.889
		c0-1.381,0.546-2.532,1.637-3.455s2.46-1.385,4.105-1.385c0.602,0,1.212,0.049,1.83,0.145
		C79.43,164.663,80.184,164.831,81.075,165.072z"/>
	<path class="st1" d="M84.012,164.555c0.562,0.032,1.119,0.056,1.673,0.072c0.554,0.016,1.096,0.023,1.625,0.023
		c0.449,0,0.951-0.008,1.504-0.023c0.554-0.017,1.14-0.04,1.758-0.072v0.818h-0.205c-0.522,0-0.913,0.061-1.174,0.181
		s-0.443,0.321-0.548,0.603c-0.064,0.185-0.11,0.483-0.138,0.897c-0.028,0.413-0.042,1.086-0.042,2.018v2.397v6
		c0,0.947,0.022,1.614,0.066,2c0.044,0.385,0.114,0.67,0.21,0.854c0.104,0.201,0.291,0.346,0.56,0.435
		c0.269,0.088,0.648,0.132,1.138,0.132h0.252v0.843c-0.69-0.032-1.328-0.056-1.914-0.072c-0.586-0.016-1.075-0.024-1.468-0.024
		c-0.466,0-0.991,0.009-1.577,0.024c-0.586,0.017-1.2,0.04-1.842,0.072v-0.843h0.241c0.498,0,0.879-0.044,1.144-0.132
		c0.265-0.089,0.45-0.233,0.554-0.435c0.112-0.217,0.191-0.572,0.235-1.065c0.044-0.494,0.066-1.388,0.066-2.681v-1.903v-4.711
		c0-1.261-0.016-2.158-0.048-2.692s-0.084-0.905-0.156-1.114c-0.097-0.281-0.271-0.482-0.524-0.603s-0.644-0.181-1.174-0.181h-0.216
		V164.555z"/>
	<path class="st1" d="M107.474,165.12c0.016,0.594,0.056,1.198,0.121,1.812c0.064,0.614,0.156,1.242,0.277,1.884l-0.915,0.193
		c-0.225-1.14-0.762-1.982-1.613-2.528c-0.851-0.546-2.055-0.818-3.611-0.818c-2.103,0-3.734,0.618-4.894,1.854
		c-1.16,1.236-1.739,2.985-1.739,5.249c0,2.432,0.662,4.373,1.986,5.826c1.324,1.452,3.078,2.179,5.261,2.179
		c0.458,0,0.919-0.046,1.384-0.139c0.465-0.092,0.959-0.234,1.481-0.427c0.024-0.618,0.042-1.145,0.054-1.577
		c0.012-0.434,0.018-0.787,0.018-1.06c0-1.372-0.152-2.197-0.457-2.474c-0.305-0.277-0.975-0.415-2.01-0.415h-0.169v-0.819
		c0.682,0.032,1.314,0.057,1.896,0.072c0.582,0.017,1.073,0.024,1.475,0.024c0.586,0,1.134-0.008,1.644-0.024
		c0.509-0.016,0.997-0.04,1.462-0.072v0.819c-0.674,0-1.114,0.13-1.318,0.391s-0.307,1.069-0.307,2.426v1.252
		c0,0.618,0.008,1.098,0.024,1.438s0.04,0.668,0.072,0.981c-0.265,0.056-0.662,0.145-1.192,0.265
		c-2.079,0.465-3.651,0.698-4.719,0.698c-2.785,0-5.014-0.811-6.687-2.432s-2.51-3.772-2.51-6.452c0-2.681,0.901-4.861,2.703-6.543
		c1.801-1.681,4.139-2.521,7.012-2.521c0.867,0,1.74,0.078,2.618,0.234C105.698,164.572,106.583,164.808,107.474,165.12z"/>
	<path class="st1" d="M110.507,164.555c0.377,0.032,0.744,0.056,1.102,0.072c0.357,0.016,0.708,0.023,1.053,0.023
		c0.257,0,0.558-0.008,0.903-0.023c0.345-0.017,0.718-0.04,1.12-0.072c0.104,0.265,0.249,0.537,0.433,0.818s0.417,0.59,0.698,0.927
		l9.931,11.749c-0.024-1.22-0.048-2.837-0.072-4.852c-0.064-4.229-0.137-6.504-0.217-6.825c-0.096-0.369-0.267-0.626-0.511-0.771
		c-0.245-0.145-0.644-0.217-1.198-0.217h-0.374v-0.83c0.097,0,0.241,0.004,0.434,0.012c1.139,0.057,1.942,0.084,2.408,0.084
		c0.473,0,1.3-0.027,2.479-0.084c0.168-0.008,0.297-0.012,0.385-0.012l-0.012,0.83c-0.048-0.008-0.1-0.014-0.156-0.018
		s-0.132-0.006-0.229-0.006c-1.076,0-1.622,1.496-1.637,4.49c-0.008,0.754-0.012,1.344-0.012,1.77l-0.048,3.201
		c-0.016,0.474-0.026,0.962-0.03,1.463c-0.004,0.502-0.006,1.19-0.006,2.064c0,0.972,0.012,1.728,0.036,2.27
		c0.024,0.541,0.064,0.977,0.121,1.306h-1.336c-0.136-0.32-0.622-0.963-1.457-1.926l-0.12-0.145l-10.329-12.146v0.277
		c0.048,7.512,0.128,11.484,0.241,11.917c0.096,0.369,0.267,0.626,0.512,0.771c0.245,0.145,0.636,0.217,1.174,0.217h0.361v0.843
		c-0.12-0.008-0.297-0.016-0.529-0.024c-1.124-0.048-1.89-0.072-2.299-0.072c-0.394,0-0.829,0.009-1.306,0.024
		c-0.478,0.017-0.981,0.04-1.511,0.072v-0.831c0.048,0,0.102,0.003,0.163,0.007c0.06,0.004,0.138,0.006,0.234,0.006
		c1.076,0,1.621-1.488,1.637-4.466c0.008-0.755,0.012-1.345,0.012-1.77l0.06-3.202c0.008-0.69,0.014-1.362,0.018-2.017
		s0.006-1.402,0.006-2.245c0-0.69-0.133-1.168-0.397-1.433s-0.734-0.397-1.408-0.397h-0.325V164.555z"/>
	<path class="st1" d="M152.543,165.12c0.017,0.594,0.057,1.198,0.12,1.812c0.064,0.614,0.157,1.242,0.277,1.884l-0.915,0.193
		c-0.225-1.14-0.763-1.982-1.613-2.528s-2.054-0.818-3.611-0.818c-2.103,0-3.733,0.618-4.893,1.854
		c-1.16,1.236-1.74,2.985-1.74,5.249c0,2.432,0.662,4.373,1.986,5.826c1.324,1.452,3.078,2.179,5.261,2.179
		c0.457,0,0.919-0.046,1.385-0.139c0.465-0.092,0.958-0.234,1.48-0.427c0.023-0.618,0.042-1.145,0.054-1.577
		c0.013-0.434,0.019-0.787,0.019-1.06c0-1.372-0.152-2.197-0.458-2.474c-0.305-0.277-0.975-0.415-2.01-0.415h-0.169v-0.819
		c0.683,0.032,1.314,0.057,1.896,0.072c0.581,0.017,1.073,0.024,1.475,0.024c0.585,0,1.133-0.008,1.643-0.024
		c0.51-0.016,0.997-0.04,1.463-0.072v0.819c-0.674,0-1.113,0.13-1.318,0.391c-0.204,0.261-0.307,1.069-0.307,2.426v1.252
		c0,0.618,0.008,1.098,0.023,1.438c0.017,0.341,0.041,0.668,0.072,0.981c-0.265,0.056-0.662,0.145-1.191,0.265
		c-2.078,0.465-3.651,0.698-4.719,0.698c-2.785,0-5.014-0.811-6.687-2.432c-1.674-1.621-2.511-3.772-2.511-6.452
		c0-2.681,0.901-4.861,2.703-6.543c1.802-1.681,4.139-2.521,7.012-2.521c0.867,0,1.739,0.078,2.618,0.234
		S151.652,164.808,152.543,165.12z"/>
	<path class="st1" d="M155.758,180.95c0.056,0.008,0.11,0.014,0.162,0.018c0.053,0.004,0.131,0.006,0.235,0.006
		c1.066,0,1.608-1.5,1.625-4.502c0.008-0.754,0.016-1.344,0.023-1.77l0.049-3.286c0.008-0.706,0.014-1.393,0.018-2.059
		s0.006-1.388,0.006-2.167c0-0.689-0.128-1.167-0.385-1.433c-0.257-0.265-0.715-0.396-1.372-0.396h-0.097v-0.843
		c0.537,0.04,1.069,0.068,1.595,0.084c0.525,0.017,1.037,0.024,1.535,0.024c0.537,0,1.206-0.019,2.004-0.055
		c0.799-0.036,1.33-0.054,1.596-0.054c1.645,0,2.993,0.434,4.044,1.3c1.052,0.867,1.577,1.954,1.577,3.263
		c0,0.971-0.263,1.835-0.788,2.594c-0.526,0.759-1.314,1.406-2.365,1.944l2.251,3.406c0.08,0.129,0.2,0.313,0.361,0.554
		c1.557,2.376,2.832,3.563,3.827,3.563h0.121v0.687c-0.113,0.008-0.281,0.023-0.506,0.048c-0.521,0.048-0.903,0.072-1.144,0.072
		c-0.851,0-1.522-0.114-2.017-0.343c-0.493-0.229-0.98-0.673-1.463-1.331c-0.08-0.104-0.523-0.818-1.33-2.143
		c-0.806-1.324-1.619-2.571-2.438-3.743c-0.305,0.032-0.63,0.056-0.975,0.072c-0.346,0.016-0.727,0.023-1.144,0.023h-0.723v3.696
		c0,1.203,0.124,1.964,0.373,2.281c0.249,0.316,0.742,0.475,1.48,0.475c0.024,0,0.057-0.004,0.097-0.012s0.072-0.012,0.097-0.012
		c0.031,0,0.058,0.004,0.078,0.012c0.02,0.008,0.034,0.012,0.042,0.012v0.795c-0.57-0.032-1.136-0.056-1.697-0.072
		c-0.562-0.016-1.12-0.024-1.674-0.024c-0.297,0-0.714,0.009-1.252,0.024c-0.537,0.017-1.147,0.04-1.829,0.072V180.95z
		 M160.043,173.246c0.386,0.04,0.748,0.068,1.09,0.084c0.341,0.017,0.644,0.024,0.908,0.024c0.225,0,0.481-0.007,0.771-0.019
		s0.603-0.034,0.939-0.066c0.771-0.465,1.336-1.005,1.697-1.619c0.361-0.613,0.542-1.346,0.542-2.196
		c0-1.115-0.361-2.011-1.084-2.685c-0.722-0.674-1.693-1.012-2.913-1.012c-0.329,0-0.65,0.015-0.963,0.043
		c-0.313,0.027-0.622,0.07-0.927,0.126c-0.024,0.995-0.04,2.019-0.049,3.069C160.047,170.048,160.043,171.464,160.043,173.246z"/>
	<path class="st1" d="M182.06,164.157c1.22,0,2.31,0.175,3.269,0.523c0.959,0.35,1.827,0.889,2.606,1.619
		c0.931,0.883,1.643,1.906,2.137,3.069c0.493,1.164,0.74,2.4,0.74,3.708c0,1.332-0.261,2.593-0.782,3.78
		c-0.522,1.188-1.265,2.211-2.228,3.069c-0.771,0.69-1.667,1.229-2.69,1.619c-1.023,0.389-2.049,0.584-3.075,0.584
		c-1.284,0-2.466-0.237-3.546-0.71c-1.079-0.474-2.032-1.176-2.858-2.107c-0.755-0.851-1.33-1.806-1.728-2.864
		c-0.397-1.06-0.596-2.175-0.596-3.347c0-1.269,0.238-2.466,0.716-3.594c0.478-1.127,1.17-2.116,2.077-2.967
		c0.818-0.771,1.741-1.36,2.769-1.77C179.896,164.362,180.96,164.157,182.06,164.157z M188.151,173.499
		c0-2.336-0.603-4.252-1.806-5.748c-1.204-1.497-2.721-2.245-4.551-2.245c-1.758,0-3.168,0.642-4.231,1.926
		s-1.595,3.001-1.595,5.152c0,2.392,0.604,4.354,1.812,5.886c1.208,1.533,2.719,2.3,4.532,2.3c1.75,0,3.16-0.66,4.231-1.98
		S188.151,175.706,188.151,173.499z"/>
	<path class="st1" d="M199.141,164.555v0.818c-0.048,0-0.116-0.004-0.204-0.012c-0.089-0.008-0.152-0.013-0.192-0.013
		c-0.635,0-1.063,0.209-1.288,0.627c-0.226,0.418-0.338,1.409-0.338,2.976v1.903v2.494c0,1.301,0.041,2.261,0.121,2.879
		c0.08,0.619,0.212,1.129,0.397,1.53c0.393,0.867,0.973,1.528,1.739,1.981c0.766,0.454,1.691,0.681,2.774,0.681
		c0.811,0,1.521-0.116,2.131-0.349c0.609-0.233,1.132-0.591,1.564-1.072c0.434-0.482,0.738-1.072,0.915-1.771
		c0.177-0.698,0.265-1.863,0.265-3.493c0-1.96-0.021-3.608-0.065-4.945c-0.045-1.338-0.103-2.146-0.175-2.428
		c-0.112-0.37-0.287-0.627-0.523-0.771c-0.237-0.145-0.62-0.217-1.15-0.217h-0.18v-0.818c0.096,0,0.236,0.004,0.421,0.012
		c1.107,0.057,1.897,0.084,2.371,0.084c0.466,0,1.252-0.027,2.359-0.084c0.193-0.008,0.333-0.012,0.422-0.012v0.818h-0.145
		c-0.474,0-0.829,0.061-1.065,0.181c-0.237,0.12-0.407,0.321-0.512,0.603c-0.088,0.232-0.152,0.845-0.192,1.837
		s-0.061,2.596-0.061,4.812v1.205c0,1.269-0.048,2.238-0.145,2.909c-0.096,0.67-0.253,1.263-0.469,1.776
		c-0.45,1.068-1.225,1.907-2.324,2.518c-1.099,0.61-2.396,0.916-3.888,0.916c-1.035,0-1.988-0.153-2.859-0.458
		c-0.87-0.305-1.61-0.747-2.221-1.325c-0.666-0.61-1.14-1.331-1.42-2.162c-0.281-0.831-0.422-1.994-0.422-3.487
		c0-0.578,0.008-1.524,0.024-2.837c0.016-1.313,0.023-2.339,0.023-3.078v-0.373c0-1.382-0.114-2.233-0.343-2.555
		s-0.676-0.481-1.342-0.481h-0.217v-0.818c0.569,0.032,1.111,0.056,1.625,0.072c0.514,0.016,0.982,0.023,1.408,0.023
		c0.514,0,1.035-0.008,1.565-0.023C198.058,164.61,198.595,164.587,199.141,164.555z"/>
	<path class="st1" d="M212.263,180.95c0.064,0.008,0.126,0.014,0.187,0.018s0.154,0.006,0.283,0.006
		c0.642,0,1.077-0.218,1.306-0.655s0.343-1.411,0.343-2.92c0-0.225-0.004-0.638-0.012-1.239c-0.008-0.603-0.012-1.088-0.012-1.457
		v-7.535c0-0.69-0.125-1.164-0.373-1.421c-0.249-0.257-0.703-0.385-1.36-0.385h-0.097v-0.843c0.546,0.04,1.09,0.068,1.631,0.084
		c0.542,0.017,1.078,0.024,1.607,0.024c0.594,0,1.302-0.019,2.125-0.055c0.822-0.036,1.354-0.054,1.595-0.054
		c1.758,0,3.162,0.438,4.213,1.312c1.052,0.875,1.577,2.027,1.577,3.455c0,1.693-0.576,3.012-1.728,3.955
		c-1.151,0.942-2.778,1.414-4.881,1.414c-0.209,0-0.492-0.012-0.849-0.036c-0.357-0.024-0.781-0.061-1.271-0.108v3.623
		c0,1.236,0.127,2.013,0.379,2.33c0.253,0.316,0.761,0.475,1.523,0.475c0.023,0,0.066-0.004,0.126-0.012
		c0.061-0.008,0.106-0.012,0.139-0.012c0.04,0,0.07,0.002,0.09,0.006c0.021,0.004,0.038,0.01,0.055,0.018l0.012,0.795
		c-0.586-0.032-1.176-0.056-1.77-0.072c-0.594-0.016-1.18-0.024-1.758-0.024c-0.28,0-0.691,0.009-1.233,0.024
		c-0.542,0.017-1.158,0.04-1.848,0.072V180.95z M216.548,173.402c0.337,0.048,0.642,0.084,0.915,0.108
		c0.272,0.024,0.542,0.036,0.807,0.036c1.509,0,2.654-0.335,3.437-1.005s1.174-1.651,1.174-2.943c0-1.164-0.385-2.091-1.155-2.781
		c-0.771-0.689-1.814-1.035-3.13-1.035c-0.361,0-0.704,0.015-1.029,0.042c-0.325,0.028-0.645,0.07-0.957,0.127
		c-0.024,1.083-0.04,2.177-0.049,3.28C216.552,170.335,216.548,171.725,216.548,173.402z"/>
</g>
<line class="st2" x1="0.5" y1="0" x2="0.5" y2="299"/>
</svg>